<mxfile host="app.diagrams.net" modified="2021-08-23T08:37:22.908Z" agent="5.0 (Macintosh; Intel Mac OS X 10_14_4) AppleWebKit/537.36 (KHTML, like Gecko) Chrome/92.0.4515.159 Safari/537.36" etag="SrIt6ZCpxXDWw8g9Lxea" version="14.9.8" type="github">
  <diagram id="7zUYwrmOjh2xGsWCl2P7" name="第 1 页">
    <mxGraphModel dx="946" dy="1760" grid="1" gridSize="10" guides="1" tooltips="1" connect="1" arrows="1" fold="1" page="1" pageScale="1" pageWidth="827" pageHeight="1169" math="0" shadow="0">
      <root>
        <mxCell id="0" />
        <mxCell id="1" parent="0" />
        <mxCell id="xkRlXE4Gpte0sn9TXA4R-3" style="edgeStyle=none;rounded=0;orthogonalLoop=1;jettySize=auto;html=1;exitX=0.5;exitY=0;exitDx=0;exitDy=0;" edge="1" parent="1">
          <mxGeometry relative="1" as="geometry">
            <mxPoint x="665" y="-10" as="sourcePoint" />
            <mxPoint x="665" y="-10" as="targetPoint" />
          </mxGeometry>
        </mxCell>
        <mxCell id="xkRlXE4Gpte0sn9TXA4R-5" style="edgeStyle=none;rounded=0;orthogonalLoop=1;jettySize=auto;html=1;exitX=0.5;exitY=0;exitDx=0;exitDy=0;" edge="1" parent="1">
          <mxGeometry relative="1" as="geometry">
            <mxPoint x="665" y="-10" as="sourcePoint" />
            <mxPoint x="665" y="-10" as="targetPoint" />
          </mxGeometry>
        </mxCell>
      </root>
    </mxGraphModel>
  </diagram>
</mxfile>
